<?xml version="1.0" encoding="iso-8859-1"?>
<!-- Generator: Adobe Illustrator 19.0.0, SVG Export Plug-In . SVG Version: 6.00 Build 0)  -->
<svg version="1.1" id="Layer_1" xmlns="http://www.w3.org/2000/svg" xmlns:xlink="http://www.w3.org/1999/xlink" x="0px" y="0px"
	 viewBox="0 0 512 512" style="enable-background:new 0 0 512 512;" xml:space="preserve">
<g>
	<g>
		<path d="M437.019,74.982C388.668,26.629,324.382,0,256.005,0c-68.382,0-132.67,26.629-181.023,74.982
			C26.629,123.335,0,187.624,0,256.005c0,68.377,26.629,132.662,74.982,181.013C123.336,485.372,187.624,512,256.005,512
			c68.376,0,132.662-26.628,181.013-74.981C485.372,388.667,512,324.382,512,256.005C512,187.624,485.372,123.336,437.019,74.982z
			 M425.568,425.568c-45.293,45.293-105.512,70.237-169.562,70.237c-64.055,0-124.277-24.944-169.572-70.237
			c-45.293-45.293-70.238-105.512-70.238-169.562c0-64.056,24.945-124.278,70.238-169.572
			c45.295-45.293,105.516-70.238,169.572-70.238c64.05,0,124.269,24.945,169.562,70.238
			c45.293,45.295,70.237,105.517,70.237,169.572C495.805,320.056,470.861,380.274,425.568,425.568z"/>
	</g>
</g>
<g>
	<g>
		<path d="M440.911,182.456c-37.026-23.067-78.872-39.324-124.383-48.325c-36.313-7.182-75.02-9.781-115.052-7.726
			c-66.26,3.402-113.274,18.233-117.615,19.643c-8.685,2.289-15.882,7.784-20.288,15.498c-4.445,7.782-5.543,17.229-3.015,25.913
			c2.532,8.717,8.193,15.896,15.938,20.215c7.812,4.356,16.945,5.348,25.715,2.791c34.27-9.983,70.707-14.26,121.874-14.306
			c16.895-0.11,42.65,2.125,65.607,5.68c47.69,7.39,85.358,19.837,118.542,39.17c4.955,2.887,10.383,4.376,15.871,4.376
			c1.06,0,2.123-0.055,3.185-0.169c15.16-1.613,26.942-11.923,30.016-26.271C460.437,204.298,454.156,190.326,440.911,182.456z
			 M441.47,215.558c-1.604,7.488-7.695,12.682-15.884,13.553c-3.146,0.33-6.241-0.374-9.198-2.097
			c-34.988-20.385-74.459-33.47-124.215-41.18c-23.196-3.592-49.284-5.875-66.924-5.875c-0.411,0-0.819,0.001-1.221,0.005
			c-52.74,0.046-90.526,4.519-126.348,14.954c-4.579,1.332-9.3,0.839-13.297-1.388c-3.999-2.23-6.937-5.99-8.275-10.594
			c-1.328-4.564-0.786-9.307,1.527-13.356c2.255-3.951,5.986-6.759,10.502-7.91l0.539-0.158c0.473-0.155,48.07-15.63,114.108-18.957
			c38.633-1.946,75.941,0.583,110.884,7.52c43.5,8.636,83.454,24.172,118.751,46.174l0.164,0.099
			C439.913,200.68,443.153,207.684,441.47,215.558z"/>
	</g>
</g>
<g>
	<g>
		<path d="M405.76,273.088c-29.092-20.854-63.391-35.717-101.948-44.18c-30.791-6.759-64.353-9.469-99.753-8.058
			c-59.019,2.353-102.619,15.212-105.965,16.222c-11.03,2.969-18.452,11.571-20.375,23.631
			c-1.677,10.553,2.096,20.179,10.628,27.114c8.077,6.547,17.807,8.157,28.932,4.782c22.717-6.913,46.591-10.813,72.989-11.922
			c13.549-0.57,27.493-0.027,40.984,0.499c16.298,0.62,33.721,2.971,53.264,7.186c34.826,7.517,64.721,19.025,91.384,35.176
			c4.747,2.884,9.672,4.336,14.683,4.336c1.068,0,2.14-0.066,3.215-0.2c13.562-1.681,23.321-10.484,26.107-23.538
			C422.554,291.784,416.877,279.378,405.76,273.088z M404.068,300.753c-1.318,6.181-5.674,10.036-12.255,10.852
			c-2.447,0.297-4.899-0.324-7.514-1.912c-28.232-17.102-59.753-29.257-96.367-37.16c-20.475-4.416-38.814-6.882-56.058-7.538
			c-9.571-0.372-19.366-0.755-29.209-0.755c-4.354,0-8.721,0.076-13.079,0.257c-27.398,1.152-53.313,5.394-77.016,12.608
			c-5.978,1.814-10.173,1.256-14.018-1.86c-4.076-3.313-5.613-7.125-4.84-11.993c1.377-8.639,6.861-10.083,8.663-10.558l0.301-0.085
			c0.437-0.133,44.313-13.328,102.45-15.591c33.957-1.322,66.07,1.289,95.451,7.763c36.46,8.033,68.796,22.074,96.109,41.733
			l0.418,0.301l0.452,0.245C402.618,289.805,405.236,295.305,404.068,300.753z"/>
	</g>
</g>
<g>
	<g>
		<path d="M386.259,367.387c-1.738-6.557-6.099-12.118-12.292-15.681c-62.621-39.886-131.737-45.941-178.716-43.99
			c-48.479,2.013-83.184,12.467-87.527,13.83c-6.448,1.439-11.911,5.266-15.421,10.812c-3.573,5.646-4.709,12.608-3.115,19.099
			c3.396,13.849,16.498,21.951,30.471,18.849c21.655-4.783,41.166-7.896,59.652-9.514c26.298-2.311,50.153-1.97,72.921,1.041
			c35.117,4.652,67.309,15.729,95.684,32.921c4.448,2.693,9.32,4.077,14.154,4.077c2.031,0,4.056-0.245,6.038-0.74
			c6.411-1.598,11.86-5.695,15.34-11.53C386.974,380.662,387.972,373.854,386.259,367.387z M369.545,378.258
			c-1.276,2.14-3.127,3.564-5.353,4.119c-2.484,0.622-5.288,0.095-7.886-1.477c-30.298-18.357-64.597-30.174-101.948-35.123
			c-13.575-1.795-27.482-2.691-41.991-2.691c-11.101,0-22.555,0.525-34.47,1.573c-19.19,1.68-39.382,4.896-61.738,9.835
			c-5.422,1.201-9.934-1.568-11.241-6.895c-0.549-2.238-0.159-4.636,1.071-6.58c1.216-1.921,3.146-3.236,5.437-3.704l0.866-0.227
			c0.349-0.112,35.43-11.253,84.118-13.21c44.557-1.794,110.055,3.969,169.017,41.59l0.375,0.225
			c2.468,1.394,4.174,3.469,4.804,5.843C371.191,373.747,370.816,376.132,369.545,378.258z"/>
	</g>
</g>
<g>
</g>
<g>
</g>
<g>
</g>
<g>
</g>
<g>
</g>
<g>
</g>
<g>
</g>
<g>
</g>
<g>
</g>
<g>
</g>
<g>
</g>
<g>
</g>
<g>
</g>
<g>
</g>
<g>
</g>
</svg>
